<?xml version="1.0" encoding="iso-8859-1"?>
<!-- Generator: Adobe Illustrator 19.0.0, SVG Export Plug-In . SVG Version: 6.00 Build 0)  -->
<svg version="1.1" id="Capa_1" xmlns="http://www.w3.org/2000/svg" xmlns:xlink="http://www.w3.org/1999/xlink" x="0px" y="0px"
	 viewBox="0 0 512.001 512.001" style="enable-background:new 0 0 512.001 512.001;" xml:space="preserve">
<g>
	<path style="fill:#FF5D5D;" d="M288.983,419.551c19.37,0,35.072-15.702,35.072-35.072s-15.702-35.072-35.072-35.072V419.551z"/>
	<path style="fill:#FF5D5D;" d="M105.436,337.078c-26.198,0-47.435,21.237-47.435,47.435l0,0c0,26.198,21.237,47.435,47.435,47.435
		h9.438v-94.869L105.436,337.078L105.436,337.078z"/>
</g>
<polygon style="fill:#6A80FF;" points="94.457,431.96 94.457,502 114.869,502 114.869,431.972 "/>
<polygon style="fill:#ADE5FF;" points="172.208,313.988 172.208,455.033 288.983,502 288.983,266.958 "/>
<polygon style="fill:#FFFFFF;" points="244.301,484.029 288.983,502 288.983,266.957 244.301,284.953 "/>
<path style="fill:#A0E557;" d="M121.73,70.05v181.136c0,1.824,0.319,3.571,0.88,5.205L139.001,240h202.78c7.732,0,14-6.268,14-14
	v-37l-99.78-135h-118.22C128.916,54,121.73,61.186,121.73,70.05z"/>
<path style="fill:#FFFFFF;" d="M323.334,156V40c0-16.569,13.431-30,30-30h-67.333c-16.569,0-30,13.431-30,30v116
	c0,16.569,13.431,30,30,30h67.333C336.766,186,323.334,172.569,323.334,156z"/>
<path style="fill:#ADE5FF;" d="M502.001,156V40c0-16.569-13.431-30-30-30H353.334c-16.569,0-30,13.431-30,30v116
	c0,16.569,13.431,30,30,30h118.667C488.57,186,502.001,172.569,502.001,156z"/>
<polygon style="fill:#FF5D5D;" points="345.736,58.486 414.176,98 345.736,137.514 "/>
<path d="M244.301,429.859c-2.63,0-5.21,1.07-7.07,2.931c-1.86,1.859-2.93,4.439-2.93,7.069c0,2.641,1.07,5.21,2.93,7.07
	c1.86,1.87,4.44,2.93,7.07,2.93s5.21-1.06,7.07-2.93c1.86-1.86,2.93-4.439,2.93-7.07c0-2.63-1.07-5.21-2.93-7.069
	C249.511,430.93,246.931,429.859,244.301,429.859z"/>
<path d="M298.983,340.539v-73.582c0-3.322-1.65-6.428-4.403-8.287s-6.25-2.229-9.333-0.989l-172.313,69.397h-55.5
	c-31.668,0-57.433,25.765-57.433,57.435s25.765,57.435,57.435,57.435h6.609V502c0,5.522,4.477,10,10,10h40.824
	c5.523,0,10-4.478,10-10v-55.228l160.383,64.506c1.203,0.484,2.47,0.723,3.73,0.723c1.968,0,3.922-0.581,5.6-1.714
	c2.752-1.859,4.401-4.965,4.401-8.286V428.42c20.054-4.563,35.072-22.525,35.072-43.94S319.037,345.102,298.983,340.539z
	 M20.001,384.513c0-20.642,16.793-37.435,37.435-37.435h47.438l-0.004,74.869H57.436C36.794,421.947,20.001,405.154,20.001,384.513z
	 M84.045,492v-50.053h20.824V492H84.045z M278.983,487.199l-154.109-61.983V343.83l109.427-44.07V399c0,5.522,4.477,10,10,10
	s10-4.478,10-10V291.705l24.683-9.941v205.435H278.983z M298.983,407.464v-45.97c8.861,3.87,15.072,12.714,15.072,22.985
	C314.055,394.75,307.845,403.594,298.983,407.464z"/>
<path d="M429.453,374.775h-56.618c-5.523,0-10,4.478-10,10s4.477,10,10,10h56.618c5.523,0,10-4.478,10-10
	S434.976,374.775,429.453,374.775z"/>
<path d="M356.419,338.1c2.559,0,5.119-0.977,7.071-2.929l19.53-19.53c3.905-3.905,3.905-10.237,0-14.143
	c-3.905-3.904-10.237-3.904-14.143,0l-19.53,19.53c-3.905,3.905-3.905,10.237,0,14.143C351.301,337.123,353.86,338.1,356.419,338.1z
	"/>
<path d="M363.571,432.792c-3.905-3.904-10.237-3.904-14.143,0c-3.905,3.905-3.905,10.237,0,14.143l20.184,20.184
	c1.953,1.952,4.512,2.929,7.071,2.929s5.119-0.977,7.071-2.929c3.905-3.905,3.905-10.237,0-14.143L363.571,432.792z"/>
<path d="M472.001,0h-186c-22.056,0-40,17.944-40,40v4h-168c-13.234,0-24,10.767-24,24v158c0,13.233,10.766,24,24,24h10.333v30.667
	c0,4.045,2.437,7.691,6.173,9.239c1.237,0.512,2.536,0.761,3.825,0.761c2.602,0,5.16-1.016,7.073-2.929L143.143,250h198.638
	c13.234,0,24-10.767,24-24v-30h106.22c22.056,0,40-17.944,40-40V40C512,17.944,494.057,0,472.001,0z M345.781,226
	c0,2.206-1.794,4-4,4h-202.78c-2.652,0-5.196,1.054-7.071,2.929l-23.595,23.596V240c0-5.522-4.477-10-10-10H78.001
	c-2.206,0-4-1.794-4-4V68c0-2.206,1.794-4,4-4h168v92c0,22.056,17.944,40,40,40h59.78V226z M492.001,156c0,11.028-8.972,20-20,20
	h-186c-11.028,0-20-8.972-20-20V40c0-11.028,8.972-20,20-20h186c11.028,0,20,8.972,20,20V156z"/>
<path d="M419.176,89.34l-68.44-39.514c-3.094-1.787-6.906-1.787-10,0c-3.094,1.786-5,5.088-5,8.66v79.027
	c0,3.572,1.906,6.874,5,8.66c1.547,0.894,3.273,1.34,5,1.34s3.453-0.446,5-1.34l68.44-39.514c3.094-1.786,5-5.088,5-8.66
	S422.271,91.126,419.176,89.34z M355.736,120.193V75.807L394.176,98L355.736,120.193z"/>
<path d="M214.512,105h-100c-5.523,0-10,4.478-10,10s4.477,10,10,10h100c5.523,0,10-4.478,10-10S220.035,105,214.512,105z"/>
<path d="M214.511,161c-2.63,0-5.21,1.069-7.07,2.93c-1.86,1.86-2.93,4.44-2.93,7.07s1.07,5.21,2.93,7.069
	c1.86,1.86,4.44,2.931,7.07,2.931c2.64,0,5.21-1.07,7.07-2.931c1.86-1.859,2.93-4.439,2.93-7.069s-1.07-5.21-2.93-7.07
	C219.721,162.069,217.141,161,214.511,161z"/>
<path d="M177.001,161h-62.489c-5.523,0-10,4.478-10,10s4.477,10,10,10h62.489c5.523,0,10-4.478,10-10S182.524,161,177.001,161z"/>
<g>
</g>
<g>
</g>
<g>
</g>
<g>
</g>
<g>
</g>
<g>
</g>
<g>
</g>
<g>
</g>
<g>
</g>
<g>
</g>
<g>
</g>
<g>
</g>
<g>
</g>
<g>
</g>
<g>
</g>
</svg>
